<svg version="1.1" xmlns="http://www.w3.org/2000/svg" viewBox="0 0 1025.7387918235136 662.8073575667279" width="2051.477583647027" height="1325.6147151334558">
  <!-- svg-source:excalidraw -->
  
  <defs>
    <style class="style-fonts">
      @font-face {
        font-family: "Virgil";
        src: url("https://excalidraw.com/Virgil.woff2");
      }
      @font-face {
        font-family: "Cascadia";
        src: url("https://excalidraw.com/Cascadia.woff2");
      }
    </style>
  </defs>
  <rect x="0" y="0" width="1025.7387918235136" height="662.8073575667279" fill="#ffffff"></rect><g stroke-linecap="round"><g transform="translate(515.0836544096819 11.14187231175606) rotate(0 0.4569929617512116 63.633048911785636)"><path d="M-0.25 -1.14 C-0.42 20.12, -1.11 106.7, -0.92 128.41 M1.82 0.87 C2.02 21.67, 1.52 105.33, 1.31 126.39" stroke="#000000" stroke-width="4" fill="none"></path></g><g transform="translate(515.0836544096819 11.14187231175606) rotate(0 0.4569929617512116 63.633048911785636)"><path d="M-10.65 96.6 C-5.1 108.35, -0.79 115.74, 1.37 128.24 M-7.8 99.08 C-5.95 109.05, -0.78 117.66, 2.1 127.37" stroke="#000000" stroke-width="4" fill="none"></path></g><g transform="translate(515.0836544096819 11.14187231175606) rotate(0 0.4569929617512116 63.633048911785636)"><path d="M9.87 96.75 C9.1 108.41, 7.09 115.76, 1.37 128.24 M12.72 99.23 C7.2 109.28, 5.02 117.83, 2.1 127.37" stroke="#000000" stroke-width="4" fill="none"></path></g></g><mask></mask><g transform="translate(554.1285673895786 31.624426950246516) rotate(0 47.483985900878906 22.5)"><text x="0" y="0" font-family="Virgil, Segoe UI Emoji" font-size="36px" fill="#000000" text-anchor="start" style="white-space: pre;" direction="ltr" dominant-baseline="text-before-edge">Input</text></g><g transform="translate(554.1285673895786 81.12541549683692) rotate(0 117.83203125 18.399999999999977)"><text x="0" y="0" font-family="Helvetica, Segoe UI Emoji" font-size="16px" fill="#000000" text-anchor="start" style="white-space: pre;" direction="ltr" dominant-baseline="text-before-edge">Input type; Deposit or Withdrawal</text><text x="0" y="18.4" font-family="Helvetica, Segoe UI Emoji" font-size="16px" fill="#000000" text-anchor="start" style="white-space: pre;" direction="ltr" dominant-baseline="text-before-edge">Amount type; integer  </text></g><g stroke-linecap="round"><g transform="translate(515.0997206662623 509.2238143816469) rotate(0 0.0888878870755434 64.53331937414782)"><path d="M-0.97 0.95 C-0.95 22.56, 0.94 107.64, 1.15 128.67 M0.73 0.4 C0.6 21.74, 0.98 105.55, 0.8 126.79" stroke="#000000" stroke-width="4" fill="none"></path></g><g transform="translate(515.0997206662623 509.2238143816469) rotate(0 0.0888878870755434 64.53331937414782)"><path d="M-7.85 100.5 C-4.96 109.97, -3.6 121.82, -0.58 126.45 M-8.61 98.87 C-7.36 105.15, -5.71 110.83, 1.16 126.77" stroke="#000000" stroke-width="4" fill="none"></path></g><g transform="translate(515.0997206662623 509.2238143816469) rotate(0 0.0888878870755434 64.53331937414782)"><path d="M12.67 100.52 C7.67 109.82, 1.13 121.66, -0.58 126.45 M11.91 98.89 C8.8 105.13, 6.09 110.8, 1.16 126.77" stroke="#000000" stroke-width="4" fill="none"></path></g></g><mask></mask><g transform="translate(554.1446336461595 529.7063690201373) rotate(0 62.72998046875 22.5)"><text x="0" y="0" font-family="Virgil, Segoe UI Emoji" font-size="36px" fill="#000000" text-anchor="start" style="white-space: pre;" direction="ltr" dominant-baseline="text-before-edge">Output</text></g><g transform="translate(554.1446336461595 579.207357566728) rotate(0 125.90234375 36.799999999999955)"><text x="0" y="0" font-family="Helvetica, Segoe UI Emoji" font-size="16px" fill="#000000" text-anchor="start" style="white-space: pre;" direction="ltr" dominant-baseline="text-before-edge">date || credit || debit || balance</text><text x="0" y="18.4" font-family="Helvetica, Segoe UI Emoji" font-size="16px" fill="#000000" text-anchor="start" style="white-space: pre;" direction="ltr" dominant-baseline="text-before-edge">14/01/2023 || || 500.00 || 2500.00</text><text x="0" y="36.8" font-family="Helvetica, Segoe UI Emoji" font-size="16px" fill="#000000" text-anchor="start" style="white-space: pre;" direction="ltr" dominant-baseline="text-before-edge">13/01/2023 || 2000.00 || || 3000.00</text><text x="0" y="55.199999999999996" font-family="Helvetica, Segoe UI Emoji" font-size="16px" fill="#000000" text-anchor="start" style="white-space: pre;" direction="ltr" dominant-baseline="text-before-edge">10/01/2023 || 1000.00 || || 1000.00  </text></g><g stroke-linecap="round" transform="translate(10 195.4007111591543) rotate(0 140.71465587819546 140.71465587819546)"><path d="M32 0 M32 0 C114.12 -2.29, 196.58 -2.46, 249.43 0 M32 0 C86.81 -1.15, 141.39 -2.04, 249.43 0 M249.43 0 C270.19 -0.79, 281.53 9.19, 281.43 32 M249.43 0 C271.15 -0.54, 279.31 9.76, 281.43 32 M281.43 32 C283.22 92.85, 283.27 151.37, 281.43 249.43 M281.43 32 C282.49 109.65, 281.25 186.11, 281.43 249.43 M281.43 249.43 C281.16 272.51, 270.04 282.7, 249.43 281.43 M281.43 249.43 C283.38 272.18, 268.75 283.69, 249.43 281.43 M249.43 281.43 C178.85 281.58, 108.91 281.04, 32 281.43 M249.43 281.43 C203.51 281.05, 158.48 281.65, 32 281.43 M32 281.43 C11.72 283.11, -0.42 272.23, 0 249.43 M32 281.43 C11.93 282.73, -0.51 272.99, 0 249.43 M0 249.43 C1.56 188.5, 1.47 128.51, 0 32 M0 249.43 C-0.06 179.08, -0.3 111.01, 0 32 M0 32 C-0.78 10.62, 9.66 -0.29, 32 0 M0 32 C0.62 9.15, 10.56 -1.62, 32 0" stroke="#000000" stroke-width="4" fill="none"></path></g><g transform="translate(29.16473381151718 218.49379675218142) rotate(0 30.179977416992188 12.5)"><text x="0" y="0" font-family="Virgil, Segoe UI Emoji" font-size="20px" fill="#1e1e1e" text-anchor="start" style="white-space: pre;" direction="ltr" dominant-baseline="text-before-edge">class </text></g><g transform="translate(88.33041460593267 213.32702439942796) rotate(0 57.845703125 16.100000000000023)"><text x="0" y="0" font-family="Helvetica, Segoe UI Emoji" font-size="28px" fill="#2f9e44" text-anchor="start" style="white-space: pre;" direction="ltr" dominant-baseline="text-before-edge">dateTime</text></g><g transform="translate(30.377281956351 254.33175179212594) rotate(0 124.01953125 55.200000000000045)"><text x="0" y="0" font-family="Helvetica, Segoe UI Emoji" font-size="16px" fill="#1e1e1e" text-anchor="start" style="white-space: pre;" direction="ltr" dominant-baseline="text-before-edge">Functions</text><text x="0" y="18.4" font-family="Helvetica, Segoe UI Emoji" font-size="16px" fill="#1e1e1e" text-anchor="start" style="white-space: pre;" direction="ltr" dominant-baseline="text-before-edge"></text><text x="0" y="36.8" font-family="Helvetica, Segoe UI Emoji" font-size="16px" fill="#1e1e1e" text-anchor="start" style="white-space: pre;" direction="ltr" dominant-baseline="text-before-edge">Gets date time from class </text><text x="0" y="55.199999999999996" font-family="Helvetica, Segoe UI Emoji" font-size="16px" fill="#1e1e1e" text-anchor="start" style="white-space: pre;" direction="ltr" dominant-baseline="text-before-edge"></text><text x="0" y="73.6" font-family="Helvetica, Segoe UI Emoji" font-size="16px" fill="#1e1e1e" text-anchor="start" style="white-space: pre;" direction="ltr" dominant-baseline="text-before-edge">Returns formatted transaction date</text><text x="0" y="92" font-family="Helvetica, Segoe UI Emoji" font-size="16px" fill="#1e1e1e" text-anchor="start" style="white-space: pre;" direction="ltr" dominant-baseline="text-before-edge">(expected format (DD-MM-YYYY)) </text></g><g stroke-linecap="round" transform="translate(734.3094800671226 195.4007111591543) rotate(0 140.71465587819546 140.71465587819546)"><path d="M32 0 M32 0 C91.16 -0.71, 145.71 -0.74, 249.43 0 M32 0 C78.83 0.45, 127.39 -0.7, 249.43 0 M249.43 0 C272.7 -1.7, 282.12 11.64, 281.43 32 M249.43 0 C272.15 1.75, 282.9 9.31, 281.43 32 M281.43 32 C282.09 117.38, 281.45 202.49, 281.43 249.43 M281.43 32 C281.42 106.75, 280.85 181.42, 281.43 249.43 M281.43 249.43 C282.29 271.3, 271.02 283.42, 249.43 281.43 M281.43 249.43 C280.93 271.28, 269.48 279.19, 249.43 281.43 M249.43 281.43 C185.81 279.32, 122.59 279.14, 32 281.43 M249.43 281.43 C190.79 280.53, 132.13 279.7, 32 281.43 M32 281.43 C10.52 280.3, -0.31 272.63, 0 249.43 M32 281.43 C10.78 280.27, -1.26 269.92, 0 249.43 M0 249.43 C-2.1 185.74, -2.05 125.56, 0 32 M0 249.43 C1.24 203.68, 0.83 156.68, 0 32 M0 32 C-1.79 8.88, 11.69 1.61, 32 0 M0 32 C-0.7 10.05, 8.75 1.39, 32 0" stroke="#000000" stroke-width="4" fill="none"></path></g><g transform="translate(753.4742138786398 218.49379675218165) rotate(0 30.179977416992188 12.5)"><text x="0" y="0" font-family="Virgil, Segoe UI Emoji" font-size="20px" fill="#1e1e1e" text-anchor="start" style="white-space: pre;" direction="ltr" dominant-baseline="text-before-edge">class </text></g><g transform="translate(812.6398946730553 213.32702439942818) rotate(0 75.482421875 16.100000000000023)"><text x="0" y="0" font-family="Helvetica, Segoe UI Emoji" font-size="28px" fill="#2f9e44" text-anchor="start" style="white-space: pre;" direction="ltr" dominant-baseline="text-before-edge">transactions</text></g><g transform="translate(754.6867620234736 254.33175179212617) rotate(0 89.82421875 64.39999999999998)"><text x="0" y="0" font-family="Helvetica, Segoe UI Emoji" font-size="16px" fill="#1e1e1e" text-anchor="start" style="white-space: pre;" direction="ltr" dominant-baseline="text-before-edge">Functions</text><text x="0" y="18.4" font-family="Helvetica, Segoe UI Emoji" font-size="16px" fill="#1e1e1e" text-anchor="start" style="white-space: pre;" direction="ltr" dominant-baseline="text-before-edge"></text><text x="0" y="36.8" font-family="Helvetica, Segoe UI Emoji" font-size="16px" fill="#1e1e1e" text-anchor="start" style="white-space: pre;" direction="ltr" dominant-baseline="text-before-edge">Adds to balance (+=)</text><text x="0" y="55.199999999999996" font-family="Helvetica, Segoe UI Emoji" font-size="16px" fill="#1e1e1e" text-anchor="start" style="white-space: pre;" direction="ltr" dominant-baseline="text-before-edge"></text><text x="0" y="73.6" font-family="Helvetica, Segoe UI Emoji" font-size="16px" fill="#1e1e1e" text-anchor="start" style="white-space: pre;" direction="ltr" dominant-baseline="text-before-edge">Minus from balance (-=)</text><text x="0" y="92" font-family="Helvetica, Segoe UI Emoji" font-size="16px" fill="#1e1e1e" text-anchor="start" style="white-space: pre;" direction="ltr" dominant-baseline="text-before-edge"></text><text x="0" y="110.39999999999999" font-family="Helvetica, Segoe UI Emoji" font-size="16px" fill="#1e1e1e" text-anchor="start" style="white-space: pre;" direction="ltr" dominant-baseline="text-before-edge">Returns current balance  </text></g><g stroke-linecap="round" transform="translate(372.15474003356144 195.4007111591543) rotate(0 140.71465587819546 140.71465587819546)"><path d="M32 0 M32 0 C110.63 -1.23, 193.07 -0.78, 249.43 0 M32 0 C114.62 1.71, 194.74 0.81, 249.43 0 M249.43 0 C270.58 -1.44, 280.75 11.58, 281.43 32 M249.43 0 C270.16 2.22, 282.7 9.72, 281.43 32 M281.43 32 C280.17 95.26, 281.44 157.68, 281.43 249.43 M281.43 32 C280.27 102.64, 279.59 171.73, 281.43 249.43 M281.43 249.43 C280.95 269.19, 270.08 280.82, 249.43 281.43 M281.43 249.43 C279.62 268.7, 270.56 283.54, 249.43 281.43 M249.43 281.43 C187.61 281.03, 129.39 281.38, 32 281.43 M249.43 281.43 C195.04 281.03, 140.42 280.01, 32 281.43 M32 281.43 C9.19 279.83, 1.07 269.02, 0 249.43 M32 281.43 C9.19 282.05, 0.06 272.12, 0 249.43 M0 249.43 C-1.07 194.83, 1.88 137.92, 0 32 M0 249.43 C1.13 190.02, 1.33 130.03, 0 32 M0 32 C1.83 12.42, 11.87 -1.99, 32 0 M0 32 C0.49 10.46, 9.68 1.93, 32 0" stroke="#000000" stroke-width="4" fill="none"></path></g><g transform="translate(391.3194738450786 218.49379675218165) rotate(0 30.179977416992188 12.5)"><text x="0" y="0" font-family="Virgil, Segoe UI Emoji" font-size="20px" fill="#1e1e1e" text-anchor="start" style="white-space: pre;" direction="ltr" dominant-baseline="text-before-edge">class </text></g><g transform="translate(450.4851546394941 213.32702439942818) rotate(0 83.275390625 16.100000000000023)"><text x="0" y="0" font-family="Helvetica, Segoe UI Emoji" font-size="28px" fill="#2f9e44" text-anchor="start" style="white-space: pre;" direction="ltr" dominant-baseline="text-before-edge">recordLedger</text></g><g transform="translate(392.53202198991244 254.33175179212617) rotate(0 116.53125 82.79999999999995)"><text x="0" y="0" font-family="Helvetica, Segoe UI Emoji" font-size="16px" fill="#1e1e1e" text-anchor="start" style="white-space: pre;" direction="ltr" dominant-baseline="text-before-edge">Functions</text><text x="0" y="18.4" font-family="Helvetica, Segoe UI Emoji" font-size="16px" fill="#1e1e1e" text-anchor="start" style="white-space: pre;" direction="ltr" dominant-baseline="text-before-edge"></text><text x="0" y="36.8" font-family="Helvetica, Segoe UI Emoji" font-size="16px" fill="#1e1e1e" text-anchor="start" style="white-space: pre;" direction="ltr" dominant-baseline="text-before-edge">Records transactionDeposit</text><text x="0" y="55.199999999999996" font-family="Helvetica, Segoe UI Emoji" font-size="16px" fill="#1e1e1e" text-anchor="start" style="white-space: pre;" direction="ltr" dominant-baseline="text-before-edge">(date || type || amount || balance)</text><text x="0" y="73.6" font-family="Helvetica, Segoe UI Emoji" font-size="16px" fill="#1e1e1e" text-anchor="start" style="white-space: pre;" direction="ltr" dominant-baseline="text-before-edge"></text><text x="0" y="92" font-family="Helvetica, Segoe UI Emoji" font-size="16px" fill="#1e1e1e" text-anchor="start" style="white-space: pre;" direction="ltr" dominant-baseline="text-before-edge">Records transactionWithdrawal</text><text x="0" y="110.39999999999999" font-family="Helvetica, Segoe UI Emoji" font-size="16px" fill="#1e1e1e" text-anchor="start" style="white-space: pre;" direction="ltr" dominant-baseline="text-before-edge">(date || type || amount || balance</text><text x="0" y="128.79999999999998" font-family="Helvetica, Segoe UI Emoji" font-size="16px" fill="#1e1e1e" text-anchor="start" style="white-space: pre;" direction="ltr" dominant-baseline="text-before-edge"></text><text x="0" y="147.2" font-family="Helvetica, Segoe UI Emoji" font-size="16px" fill="#1e1e1e" text-anchor="start" style="white-space: pre;" direction="ltr" dominant-baseline="text-before-edge">Returns formatted ledger</text></g><g stroke-linecap="round"><g transform="translate(656.5598429898214 286.2937793038652) rotate(0 36.20817196579719 0.3368151827529573)"><path d="M-1.12 -0.77 C11.14 -0.53, 60.87 0.79, 73.53 0.9 M0.5 1.44 C12.56 1.4, 60 -0.7, 72.34 -0.74" stroke="#1e1e1e" stroke-width="4" fill="none"></path></g><g transform="translate(656.5598429898214 286.2937793038652) rotate(0 36.20817196579719 0.3368151827529573)"><path d="M43.15 9.47 C54.28 8.67, 60.94 5.18, 71.08 -0.49 M44.8 9.24 C51.31 8.4, 59.26 3.65, 72.29 -1.25" stroke="#1e1e1e" stroke-width="4" fill="none"></path></g><g transform="translate(656.5598429898214 286.2937793038652) rotate(0 36.20817196579719 0.3368151827529573)"><path d="M42.62 -11.04 C53.81 -5.75, 60.63 -3.15, 71.08 -0.49 M44.27 -11.27 C50.77 -6.43, 58.86 -5.49, 72.29 -1.25" stroke="#1e1e1e" stroke-width="4" fill="none"></path></g></g><mask></mask><g stroke-linecap="round"><g transform="translate(735.0509741183671 388.07679772612755) rotate(0 -39.08849282021856 0.22186863987110428)"><path d="M-0.68 -0.87 C-13.78 -0.9, -65.72 -0.62, -78.93 -0.56 M1.17 1.29 C-11.98 1.44, -65.71 0.81, -79.34 0.69" stroke="#1e1e1e" stroke-width="4" fill="none"></path></g><g transform="translate(735.0509741183671 388.07679772612755) rotate(0 -39.08849282021856 0.22186863987110428)"><path d="M-52.5 -7.59 C-59.79 -6.64, -67.47 -3.99, -79.4 0.93 M-50.48 -9.59 C-62.38 -5.92, -71.89 -1.66, -79.38 0.93" stroke="#1e1e1e" stroke-width="4" fill="none"></path></g><g transform="translate(735.0509741183671 388.07679772612755) rotate(0 -39.08849282021856 0.22186863987110428)"><path d="M-52.7 12.93 C-59.88 8.24, -67.5 5.24, -79.4 0.93 M-50.69 10.93 C-62.67 7.02, -72.1 3.7, -79.38 0.93" stroke="#1e1e1e" stroke-width="4" fill="none"></path></g></g><mask></mask><g stroke-linecap="round"><g transform="translate(296.1793584942948 285.34698884918544) rotate(0 36.36285555189545 -0.8479144685690017)"><path d="M0.07 -0.27 C12.29 -0.25, 61.59 0.29, 74.08 0.21 M-1.36 -1.46 C10.65 -1.83, 60.5 -2.08, 73.18 -1.79" stroke="#1e1e1e" stroke-width="4" fill="none"></path></g><g transform="translate(296.1793584942948 285.34698884918544) rotate(0 36.36285555189545 -0.8479144685690017)"><path d="M44.48 8.44 C55.48 6.32, 64.15 -0.11, 74.3 -1.04 M44.83 7.77 C55.91 3.86, 65.63 1.16, 72.39 -1.68" stroke="#1e1e1e" stroke-width="4" fill="none"></path></g><g transform="translate(296.1793584942948 285.34698884918544) rotate(0 36.36285555189545 -0.8479144685690017)"><path d="M44.61 -12.08 C55.58 -6.79, 64.21 -5.81, 74.3 -1.04 M44.96 -12.75 C56.19 -9.08, 65.87 -4.19, 72.39 -1.68" stroke="#1e1e1e" stroke-width="4" fill="none"></path></g></g><mask></mask></svg>